<?xml version="1.0" encoding="UTF-8" standalone="no"?>
<!DOCTYPE svg PUBLIC "-//W3C//DTD SVG 1.1//EN"
 "http://www.w3.org/Graphics/SVG/1.1/DTD/svg11.dtd">
<!-- Generated by graphviz version 2.43.0 (0)
 -->
<!-- Title: MinimalCPU Pages: 1 -->
<svg width="3157pt" height="437pt"
 viewBox="0.00 0.00 3157.21 436.50" xmlns="http://www.w3.org/2000/svg" xmlns:xlink="http://www.w3.org/1999/xlink">
<g id="graph0" class="graph" transform="scale(1 1) rotate(0) translate(4 432.5)">
<title>MinimalCPU</title>
<polygon fill="white" stroke="transparent" points="-4,4 -4,-432.5 3153.21,-432.5 3153.21,4 -4,4"/>
<text text-anchor="middle" x="1574.61" y="-7.8" font-family="Times,serif" font-size="14.00">MinimalCPU</text>
<!-- n2 -->
<g id="node1" class="node">
<title>n2</title>
<polygon fill="none" stroke="black" points="1839.17,-256 1782.2,-238 1839.17,-220 1896.15,-238 1839.17,-256"/>
<text text-anchor="middle" x="1839.17" y="-234.3" font-family="Times,serif" font-size="14.00">alu_op</text>
</g>
<!-- c19 -->
<g id="node14" class="node">
<title>c19</title>
<polygon fill="none" stroke="black" points="2007.16,-203.5 2007.16,-272.5 2200.16,-272.5 2200.16,-203.5 2007.16,-203.5"/>
<text text-anchor="middle" x="2038.16" y="-257.3" font-family="Times,serif" font-size="14.00">a</text>
<polyline fill="none" stroke="black" points="2007.16,-249.5 2069.16,-249.5 "/>
<text text-anchor="middle" x="2038.16" y="-234.3" font-family="Times,serif" font-size="14.00">alu_op</text>
<polyline fill="none" stroke="black" points="2007.16,-226.5 2069.16,-226.5 "/>
<text text-anchor="middle" x="2038.16" y="-211.3" font-family="Times,serif" font-size="14.00">b</text>
<polyline fill="none" stroke="black" points="2069.16,-203.5 2069.16,-272.5 "/>
<text text-anchor="middle" x="2105.16" y="-241.8" font-family="Times,serif" font-size="14.00">alu_inst</text>
<text text-anchor="middle" x="2105.16" y="-226.8" font-family="Times,serif" font-size="14.00">ALU</text>
<polyline fill="none" stroke="black" points="2141.16,-203.5 2141.16,-272.5 "/>
<text text-anchor="middle" x="2170.66" y="-234.3" font-family="Times,serif" font-size="14.00">result</text>
</g>
<!-- n2&#45;&gt;c19 -->
<g id="edge12" class="edge">
<title>n2:e&#45;&gt;c19:w</title>
<path fill="none" stroke="#666666" stroke-width="3" d="M1896.16,-238C1941.93,-238 1955.85,-238 1997.02,-238"/>
<polygon fill="#666666" stroke="#666666" stroke-width="3" points="1997.16,-241.5 2007.16,-238 1997.16,-234.5 1997.16,-241.5"/>
<text text-anchor="middle" x="1951.66" y="-241.8" font-family="Times,serif" font-size="14.00" fill="#666666">&lt;2&gt;</text>
</g>
<!-- n3 -->
<g id="node2" class="node">
<title>n3</title>
<polygon fill="none" stroke="black" points="2515.03,-209.54 2515.03,-224.46 2479.06,-235 2428.18,-235 2392.21,-224.46 2392.21,-209.54 2428.18,-199 2479.06,-199 2515.03,-209.54"/>
<text text-anchor="middle" x="2453.62" y="-213.3" font-family="Times,serif" font-size="14.00">alu_result</text>
</g>
<!-- c29 -->
<g id="node19" class="node">
<title>c29</title>
<polygon fill="none" stroke="black" points="2593.82,-290 2593.82,-428 2885.82,-428 2885.82,-290 2593.82,-290"/>
<text text-anchor="middle" x="2639.82" y="-412.8" font-family="Times,serif" font-size="14.00">clk</text>
<polyline fill="none" stroke="black" points="2593.82,-405 2685.82,-405 "/>
<text text-anchor="middle" x="2639.82" y="-389.8" font-family="Times,serif" font-size="14.00">rd</text>
<polyline fill="none" stroke="black" points="2593.82,-382 2685.82,-382 "/>
<text text-anchor="middle" x="2639.82" y="-366.8" font-family="Times,serif" font-size="14.00">reg_write</text>
<polyline fill="none" stroke="black" points="2593.82,-359 2685.82,-359 "/>
<text text-anchor="middle" x="2639.82" y="-343.8" font-family="Times,serif" font-size="14.00">rs1</text>
<polyline fill="none" stroke="black" points="2593.82,-336 2685.82,-336 "/>
<text text-anchor="middle" x="2639.82" y="-320.8" font-family="Times,serif" font-size="14.00">rs2</text>
<polyline fill="none" stroke="black" points="2593.82,-313 2685.82,-313 "/>
<text text-anchor="middle" x="2639.82" y="-297.8" font-family="Times,serif" font-size="14.00">write_data</text>
<polyline fill="none" stroke="black" points="2685.82,-290 2685.82,-428 "/>
<text text-anchor="middle" x="2737.82" y="-362.8" font-family="Times,serif" font-size="14.00">rf_inst</text>
<text text-anchor="middle" x="2737.82" y="-347.8" font-family="Times,serif" font-size="14.00">RegisterFile</text>
<polyline fill="none" stroke="black" points="2789.82,-290 2789.82,-428 "/>
<text text-anchor="middle" x="2837.82" y="-389.8" font-family="Times,serif" font-size="14.00">read_data1</text>
<polyline fill="none" stroke="black" points="2789.82,-359 2885.82,-359 "/>
<text text-anchor="middle" x="2837.82" y="-320.8" font-family="Times,serif" font-size="14.00">read_data2</text>
</g>
<!-- n3&#45;&gt;c29 -->
<g id="edge14" class="edge">
<title>n3:e&#45;&gt;c29:w</title>
<path fill="none" stroke="#d95f02" stroke-width="3" d="M2514.82,-217C2542.17,-217 2555.53,-206.68 2575.82,-225 2598.17,-245.17 2569.19,-287.51 2583.74,-298.4"/>
<polygon fill="#d95f02" stroke="#d95f02" stroke-width="3" points="2583.27,-301.89 2593.82,-301 2585.01,-295.12 2583.27,-301.89"/>
<text text-anchor="middle" x="2554.32" y="-228.8" font-family="Times,serif" font-size="14.00" fill="#d95f02">&lt;16&gt;</text>
</g>
<!-- n4 -->
<g id="node3" class="node">
<title>n4</title>
<polygon fill="none" stroke="black" points="54,-363.54 54,-378.46 38.18,-389 15.82,-389 0,-378.46 0,-363.54 15.82,-353 38.18,-353 54,-363.54"/>
<text text-anchor="middle" x="27" y="-367.3" font-family="Times,serif" font-size="14.00">clk</text>
</g>
<!-- c24 -->
<g id="node18" class="node">
<title>c24</title>
<polygon fill="none" stroke="black" points="91,-173.5 91,-242.5 332,-242.5 332,-173.5 91,-173.5"/>
<text text-anchor="middle" x="126.5" y="-227.3" font-family="Times,serif" font-size="14.00">clk</text>
<polyline fill="none" stroke="black" points="91,-219.5 162,-219.5 "/>
<text text-anchor="middle" x="126.5" y="-204.3" font-family="Times,serif" font-size="14.00">pc_next</text>
<polyline fill="none" stroke="black" points="91,-196.5 162,-196.5 "/>
<text text-anchor="middle" x="126.5" y="-181.3" font-family="Times,serif" font-size="14.00">rst</text>
<polyline fill="none" stroke="black" points="162,-173.5 162,-242.5 "/>
<text text-anchor="middle" x="230.5" y="-211.8" font-family="Times,serif" font-size="14.00">pc_inst</text>
<text text-anchor="middle" x="230.5" y="-196.8" font-family="Times,serif" font-size="14.00">ProgramCounter</text>
<polyline fill="none" stroke="black" points="299,-173.5 299,-242.5 "/>
<text text-anchor="middle" x="315.5" y="-204.3" font-family="Times,serif" font-size="14.00">pc</text>
</g>
<!-- n4&#45;&gt;c24 -->
<g id="edge15" class="edge">
<title>n4:e&#45;&gt;c24:w</title>
<path fill="none" stroke="#e6ab02" d="M54,-371C114.46,-371 37.18,-247.44 80.96,-232.48"/>
<polygon fill="#e6ab02" stroke="#e6ab02" points="81.62,-235.92 91,-231 80.6,-228.99 81.62,-235.92"/>
</g>
<!-- n4&#45;&gt;c29 -->
<g id="edge16" class="edge">
<title>n4:e&#45;&gt;c29:w</title>
<path fill="none" stroke="#e6ab02" d="M54,-371C128.03,-371 136.47,-428 210.5,-428 210.5,-428 210.5,-428 2454.62,-428 2513.17,-428 2529.9,-418.21 2583.71,-417.1"/>
<polygon fill="#e6ab02" stroke="#e6ab02" points="2583.86,-420.6 2593.82,-417 2583.79,-413.6 2583.86,-420.6"/>
</g>
<!-- n5 -->
<g id="node4" class="node">
<title>n5</title>
<polygon fill="none" stroke="black" points="1079.5,-293.54 1079.5,-308.46 1040.44,-319 985.22,-319 946.17,-308.46 946.17,-293.54 985.22,-283 1040.44,-283 1079.5,-293.54"/>
<text text-anchor="middle" x="1012.83" y="-297.3" font-family="Times,serif" font-size="14.00">instruction</text>
</g>
<!-- x2 -->
<g id="node16" class="node">
<title>x2</title>
<path fill="none" stroke="#666666" d="M1189.42,-222C1189.42,-222 1258.42,-222 1258.42,-222 1264.42,-222 1270.42,-228 1270.42,-234 1270.42,-234 1270.42,-246 1270.42,-246 1270.42,-252 1264.42,-258 1258.42,-258 1258.42,-258 1189.42,-258 1189.42,-258 1183.42,-258 1177.42,-252 1177.42,-246 1177.42,-246 1177.42,-234 1177.42,-234 1177.42,-228 1183.42,-222 1189.42,-222"/>
<text text-anchor="middle" x="1223.92" y="-236.3" font-family="Times,serif" font-size="14.00" fill="#666666">15:12 &#45; 3:0</text>
</g>
<!-- n5&#45;&gt;x2 -->
<g id="edge18" class="edge">
<title>n5:e&#45;&gt;x2:w</title>
<path fill="none" stroke="#1b9e77" stroke-width="3" d="M1079.66,-301C1094.83,-301 1086.08,-281.79 1097.66,-272 1123.56,-250.11 1135.85,-241.67 1165.61,-240.23"/>
<polygon fill="#1b9e77" stroke="#1b9e77" stroke-width="3" points="1166,-243.72 1175.92,-240 1165.85,-236.72 1166,-243.72"/>
<text text-anchor="middle" x="1119.16" y="-275.8" font-family="Times,serif" font-size="14.00" fill="#1b9e77">&lt;4&gt;</text>
</g>
<!-- x3 -->
<g id="node20" class="node">
<title>x3</title>
<path fill="none" stroke="#e7298a" d="M1319.18,-372C1319.18,-372 1370.18,-372 1370.18,-372 1376.18,-372 1382.18,-378 1382.18,-384 1382.18,-384 1382.18,-396 1382.18,-396 1382.18,-402 1376.18,-408 1370.18,-408 1370.18,-408 1319.18,-408 1319.18,-408 1313.18,-408 1307.18,-402 1307.18,-396 1307.18,-396 1307.18,-384 1307.18,-384 1307.18,-378 1313.18,-372 1319.18,-372"/>
<text text-anchor="middle" x="1344.68" y="-386.3" font-family="Times,serif" font-size="14.00" fill="#e7298a">7:6 &#45; 1:0</text>
</g>
<!-- n5&#45;&gt;x3 -->
<g id="edge19" class="edge">
<title>n5:e&#45;&gt;x3:w</title>
<path fill="none" stroke="#1b9e77" stroke-width="3" d="M1079.66,-301C1107.5,-301 1076.52,-342.89 1097.66,-361 1166.4,-419.9 1209.86,-392.26 1296.92,-390.13"/>
<polygon fill="#1b9e77" stroke="#1b9e77" stroke-width="3" points="1297.23,-393.62 1307.18,-390 1297.14,-386.62 1297.23,-393.62"/>
<text text-anchor="middle" x="1119.16" y="-391.8" font-family="Times,serif" font-size="14.00" fill="#1b9e77">&lt;2&gt;</text>
</g>
<!-- x4 -->
<g id="node21" class="node">
<title>x4</title>
<path fill="none" stroke="#e6ab02" d="M1683.18,-329C1683.18,-329 1752.18,-329 1752.18,-329 1758.18,-329 1764.18,-335 1764.18,-341 1764.18,-341 1764.18,-353 1764.18,-353 1764.18,-359 1758.18,-365 1752.18,-365 1752.18,-365 1683.18,-365 1683.18,-365 1677.18,-365 1671.18,-359 1671.18,-353 1671.18,-353 1671.18,-341 1671.18,-341 1671.18,-335 1677.18,-329 1683.18,-329"/>
<text text-anchor="middle" x="1717.68" y="-343.3" font-family="Times,serif" font-size="14.00" fill="#e6ab02">11:10 &#45; 1:0</text>
</g>
<!-- n5&#45;&gt;x4 -->
<g id="edge20" class="edge">
<title>n5:e&#45;&gt;x4:w</title>
<path fill="none" stroke="#1b9e77" stroke-width="3" d="M1079.66,-301C1089.8,-301 1088.17,-311.45 1097.66,-315 1214.17,-358.64 1527.1,-347.61 1661.08,-347.02"/>
<polygon fill="#1b9e77" stroke="#1b9e77" stroke-width="3" points="1661.19,-350.52 1671.18,-347 1661.18,-343.52 1661.19,-350.52"/>
<text text-anchor="middle" x="1223.92" y="-347.8" font-family="Times,serif" font-size="14.00" fill="#1b9e77">&lt;2&gt;</text>
</g>
<!-- x5 -->
<g id="node22" class="node">
<title>x5</title>
<path fill="none" stroke="#66a61e" d="M1926.16,-283C1926.16,-283 1977.16,-283 1977.16,-283 1983.16,-283 1989.16,-289 1989.16,-295 1989.16,-295 1989.16,-307 1989.16,-307 1989.16,-313 1983.16,-319 1977.16,-319 1977.16,-319 1926.16,-319 1926.16,-319 1920.16,-319 1914.16,-313 1914.16,-307 1914.16,-307 1914.16,-295 1914.16,-295 1914.16,-289 1920.16,-283 1926.16,-283"/>
<text text-anchor="middle" x="1951.66" y="-297.3" font-family="Times,serif" font-size="14.00" fill="#66a61e">9:8 &#45; 1:0</text>
</g>
<!-- n5&#45;&gt;x5 -->
<g id="edge21" class="edge">
<title>n5:e&#45;&gt;x5:w</title>
<path fill="none" stroke="#1b9e77" stroke-width="3" d="M1079.66,-301C1143.33,-301 1159.25,-301 1222.92,-301 1222.92,-301 1222.92,-301 1718.68,-301 1802,-301 1825.39,-301 1903.79,-301"/>
<polygon fill="#1b9e77" stroke="#1b9e77" stroke-width="3" points="1904.16,-304.5 1914.16,-301 1904.16,-297.5 1904.16,-304.5"/>
<text text-anchor="middle" x="1344.68" y="-304.8" font-family="Times,serif" font-size="14.00" fill="#1b9e77">&lt;2&gt;</text>
</g>
<!-- n6 -->
<g id="node5" class="node">
<title>n6</title>
<polygon fill="none" stroke="black" points="465,-200.54 465,-215.46 449.18,-226 426.82,-226 411,-215.46 411,-200.54 426.82,-190 449.18,-190 465,-200.54"/>
<text text-anchor="middle" x="438" y="-204.3" font-family="Times,serif" font-size="14.00">pc</text>
</g>
<!-- c15 -->
<g id="node12" class="node">
<title>c15</title>
<polygon fill="none" stroke="black" points="653,-121 653,-167 758,-167 758,-121 653,-121"/>
<text text-anchor="middle" x="666.5" y="-151.8" font-family="Times,serif" font-size="14.00">A</text>
<polyline fill="none" stroke="black" points="653,-144 680,-144 "/>
<text text-anchor="middle" x="666.5" y="-128.8" font-family="Times,serif" font-size="14.00">B</text>
<polyline fill="none" stroke="black" points="680,-121 680,-167 "/>
<text text-anchor="middle" x="706" y="-147.8" font-family="Times,serif" font-size="14.00">$1</text>
<text text-anchor="middle" x="706" y="-132.8" font-family="Times,serif" font-size="14.00">$add</text>
<polyline fill="none" stroke="black" points="732,-121 732,-167 "/>
<text text-anchor="middle" x="745" y="-140.3" font-family="Times,serif" font-size="14.00">Y</text>
</g>
<!-- n6&#45;&gt;c15 -->
<g id="edge23" class="edge">
<title>n6:e&#45;&gt;c15:w</title>
<path fill="none" stroke="#e6ab02" stroke-width="3" d="M465,-208C475.13,-208 473.84,-198.33 483,-194 549.29,-162.68 572.63,-156.52 641.47,-156.03"/>
<polygon fill="#e6ab02" stroke="#e6ab02" stroke-width="3" points="641.51,-159.53 651.5,-156 641.49,-152.53 641.51,-159.53"/>
<text text-anchor="middle" x="504.5" y="-197.8" font-family="Times,serif" font-size="14.00" fill="#e6ab02">&lt;16&gt;</text>
</g>
<!-- c23 -->
<g id="node17" class="node">
<title>c23</title>
<polygon fill="none" stroke="black" points="544,-248 544,-286 867,-286 867,-248 544,-248"/>
<text text-anchor="middle" x="580.5" y="-263.3" font-family="Times,serif" font-size="14.00">address</text>
<polyline fill="none" stroke="black" points="617,-248 617,-286 "/>
<text text-anchor="middle" x="694.5" y="-270.8" font-family="Times,serif" font-size="14.00">imem_inst</text>
<text text-anchor="middle" x="694.5" y="-255.8" font-family="Times,serif" font-size="14.00">InstructionMemory</text>
<polyline fill="none" stroke="black" points="772,-248 772,-286 "/>
<text text-anchor="middle" x="819.5" y="-263.3" font-family="Times,serif" font-size="14.00">instruction</text>
</g>
<!-- n6&#45;&gt;c23 -->
<g id="edge24" class="edge">
<title>n6:e&#45;&gt;c23:w</title>
<path fill="none" stroke="#e6ab02" stroke-width="3" d="M465,-208C505.06,-208 501.28,-257.3 533.8,-265.77"/>
<polygon fill="#e6ab02" stroke="#e6ab02" stroke-width="3" points="533.65,-269.28 544,-267 534.49,-262.33 533.65,-269.28"/>
<text text-anchor="middle" x="504.5" y="-264.8" font-family="Times,serif" font-size="14.00" fill="#e6ab02">&lt;16&gt;</text>
</g>
<!-- n7 -->
<g id="node6" class="node">
<title>n7</title>
<polygon fill="none" stroke="black" points="1223.92,-121 1158.9,-103 1223.92,-85 1288.94,-103 1223.92,-121"/>
<text text-anchor="middle" x="1223.92" y="-99.3" font-family="Times,serif" font-size="14.00">pc_next</text>
</g>
<!-- n7&#45;&gt;c24 -->
<g id="edge26" class="edge">
<title>n7:e&#45;&gt;c24:w</title>
<path fill="none" stroke="#666666" stroke-width="3" d="M1289.92,-103C1297.94,-103 1294.74,-115.49 1288.92,-121 1246.87,-160.79 1212.15,-143.15 1158.66,-121 1148.21,-116.67 1150.82,-107.98 1140.66,-103 1089.64,-78.01 1070.65,-87 1013.83,-87 437,-87 437,-87 437,-87 372.2,-87 383.09,-148.28 350,-204 340.25,-220.41 348.08,-232.71 332,-243 241.59,-300.85 167.47,-317.8 90.5,-243 86.93,-239.53 84.33,-226.14 84.97,-216.97"/>
<polygon fill="#666666" stroke="#666666" stroke-width="3" points="88.11,-218.5 89.5,-208 81.86,-215.34 88.11,-218.5"/>
<text text-anchor="middle" x="705.5" y="-90.8" font-family="Times,serif" font-size="14.00" fill="#666666">&lt;16&gt;</text>
</g>
<!-- x6 -->
<g id="node23" class="node">
<title>x6</title>
<path fill="none" stroke="#d95f02" d="M1492.18,-85C1492.18,-85 1561.18,-85 1561.18,-85 1567.18,-85 1573.18,-91 1573.18,-97 1573.18,-97 1573.18,-109 1573.18,-109 1573.18,-115 1567.18,-121 1561.18,-121 1561.18,-121 1492.18,-121 1492.18,-121 1486.18,-121 1480.18,-115 1480.18,-109 1480.18,-109 1480.18,-97 1480.18,-97 1480.18,-91 1486.18,-85 1492.18,-85"/>
<text text-anchor="middle" x="1526.68" y="-99.3" font-family="Times,serif" font-size="14.00" fill="#d95f02">15:0 &#45; 15:0</text>
</g>
<!-- n7&#45;&gt;x6 -->
<g id="edge27" class="edge">
<title>n7:e&#45;&gt;x6:w</title>
<path fill="none" stroke="#666666" stroke-width="3" d="M1289.18,-103C1369.95,-103 1392.63,-103 1468.63,-103"/>
<polygon fill="#666666" stroke="#666666" stroke-width="3" points="1468.68,-106.5 1478.68,-103 1468.68,-99.5 1468.68,-106.5"/>
<text text-anchor="middle" x="1344.68" y="-106.8" font-family="Times,serif" font-size="14.00" fill="#666666">&lt;16&gt;</text>
</g>
<!-- n8 -->
<g id="node7" class="node">
<title>n8</title>
<polygon fill="none" stroke="black" points="3053.06,-333 2964.58,-315 3053.06,-297 3141.54,-315 3053.06,-333"/>
<text text-anchor="middle" x="3053.06" y="-311.3" font-family="Times,serif" font-size="14.00">read_data1</text>
</g>
<!-- n8&#45;&gt;c19 -->
<g id="edge29" class="edge">
<title>n8:e&#45;&gt;c19:w</title>
<path fill="none" stroke="#66a61e" stroke-width="3" d="M3143.06,-315C3158.09,-315 3136.06,-459.15 2964.82,-333 2943.09,-316.99 2968.54,-291.03 2946.82,-275 2862.79,-212.95 2083.46,-343.81 2006.66,-273 2006.04,-272.43 2005.47,-271.75 2004.95,-271"/>
<polygon fill="#66a61e" stroke="#66a61e" stroke-width="3" points="2008.44,-271.22 2005.66,-261 2001.46,-270.73 2008.44,-271.22"/>
<text text-anchor="middle" x="2554.32" y="-275.8" font-family="Times,serif" font-size="14.00" fill="#66a61e">&lt;16&gt;</text>
</g>
<!-- n9 -->
<g id="node8" class="node">
<title>n9</title>
<polygon fill="none" stroke="black" points="3053.06,-261 2964.58,-243 3053.06,-225 3141.54,-243 3053.06,-261"/>
<text text-anchor="middle" x="3053.06" y="-239.3" font-family="Times,serif" font-size="14.00">read_data2</text>
</g>
<!-- n9&#45;&gt;c19 -->
<g id="edge31" class="edge">
<title>n9:e&#45;&gt;c19:w</title>
<path fill="none" stroke="#7570b3" stroke-width="3" d="M3143.06,-243C3160.56,-243 3148.66,-324.08 2964.82,-261 2955.24,-257.71 2956.16,-250.95 2946.82,-247 2793.48,-182.14 2741.31,-213.36 2575.82,-195 2548.79,-192 2542,-191.11 2514.82,-190 2460.47,-187.78 2446.81,-189.08 2392.42,-190 2306.66,-191.44 2068.79,-143.87 2006.66,-203 2006.05,-203.58 2005.48,-204.27 2004.97,-205.02"/>
<polygon fill="#7570b3" stroke="#7570b3" stroke-width="3" points="2001.48,-205.27 2005.66,-215 2008.46,-204.78 2001.48,-205.27"/>
<text text-anchor="middle" x="2554.32" y="-198.8" font-family="Times,serif" font-size="14.00" fill="#7570b3">&lt;16&gt;</text>
</g>
<!-- n10 -->
<g id="node9" class="node">
<title>n10</title>
<polygon fill="none" stroke="black" points="2296.29,-154 2218.03,-136 2296.29,-118 2374.54,-136 2296.29,-154"/>
<text text-anchor="middle" x="2296.29" y="-132.3" font-family="Times,serif" font-size="14.00">reg_write</text>
</g>
<!-- n10&#45;&gt;c29 -->
<g id="edge9" class="edge">
<title>n10:e&#45;&gt;c29:w</title>
<path fill="none" stroke="#7570b3" d="M2374.42,-136C2464.12,-136 2511.88,-86.1 2575.82,-149 2591.4,-164.32 2574.22,-325.61 2587,-363.2"/>
<polygon fill="#7570b3" stroke="#7570b3" points="2584.61,-365.78 2593.82,-371 2589.87,-361.17 2584.61,-365.78"/>
</g>
<!-- n11 -->
<g id="node10" class="node">
<title>n11</title>
<polygon fill="none" stroke="black" points="54,-177.54 54,-192.46 38.18,-203 15.82,-203 0,-192.46 0,-177.54 15.82,-167 38.18,-167 54,-177.54"/>
<text text-anchor="middle" x="27" y="-181.3" font-family="Times,serif" font-size="14.00">rst</text>
</g>
<!-- n11&#45;&gt;c24 -->
<g id="edge10" class="edge">
<title>n11:e&#45;&gt;c24:w</title>
<path fill="none" stroke="#1b9e77" d="M54,-185C66.46,-185 71.84,-185 80.87,-185"/>
<polygon fill="#1b9e77" stroke="#1b9e77" points="81,-188.5 91,-185 81,-181.5 81,-188.5"/>
</g>
<!-- v0 -->
<g id="node11" class="node">
<title>v0</title>
<ellipse fill="none" stroke="black" cx="438" cy="-41" rx="27" ry="18"/>
<text text-anchor="middle" x="438" y="-37.3" font-family="Times,serif" font-size="14.00">1</text>
</g>
<!-- v0&#45;&gt;c15 -->
<g id="edge32" class="edge">
<title>v0:e&#45;&gt;c15:w</title>
<path fill="none" stroke="#d95f02" stroke-width="3" d="M465,-41C510.47,-41 503.32,-85.7 544,-106 584.8,-126.36 600.11,-131.32 641.36,-131.93"/>
<polygon fill="#d95f02" stroke="#d95f02" stroke-width="3" points="641.48,-135.43 651.5,-132 641.52,-128.43 641.48,-135.43"/>
<text text-anchor="middle" x="504.5" y="-95.8" font-family="Times,serif" font-size="14.00" fill="#d95f02">&lt;32&gt;</text>
</g>
<!-- x1 -->
<g id="node13" class="node">
<title>x1</title>
<path fill="none" stroke="#666666" d="M969.33,-116C969.33,-116 1056.33,-116 1056.33,-116 1062.33,-116 1068.33,-122 1068.33,-128 1068.33,-128 1068.33,-150 1068.33,-150 1068.33,-156 1062.33,-162 1056.33,-162 1056.33,-162 969.33,-162 969.33,-162 963.33,-162 957.33,-156 957.33,-150 957.33,-150 957.33,-128 957.33,-128 957.33,-122 963.33,-116 969.33,-116"/>
<text text-anchor="middle" x="1012.83" y="-146.8" font-family="Times,serif" font-size="14.00" fill="#666666">31:16 &#45; 31:16</text>
<polyline fill="none" stroke="#666666" points="957.33,-139 1068.33,-139 "/>
<text text-anchor="middle" x="1012.83" y="-123.8" font-family="Times,serif" font-size="14.00" fill="#666666">15:0 &#45; 15:0</text>
</g>
<!-- c15&#45;&gt;x1 -->
<g id="edge1" class="edge">
<title>c15:e&#45;&gt;x1:w</title>
<path fill="none" stroke="#666666" stroke-width="3" d="M771.83,-143.97C845.15,-143.55 870.26,-139.45 943.63,-139.03"/>
<polygon fill="none" stroke="#666666" stroke-width="3" points="771.5,-143.97 765.51,-147.98 759.5,-144 765.49,-139.98 771.5,-143.97"/>
<polygon fill="none" stroke="#666666" stroke-width="3" points="943.83,-139.03 949.82,-135.02 955.83,-139 949.84,-143.02 943.83,-139.03"/>
<text text-anchor="middle" x="906.5" y="-144.8" font-family="Times,serif" font-size="14.00" fill="#666666">&lt;32&gt;</text>
</g>
<!-- x1&#45;&gt;n7 -->
<g id="edge25" class="edge">
<title>x1:e&#45;&gt;n7:w</title>
<path fill="none" stroke="#666666" stroke-width="3" d="M1069.83,-127C1087.4,-127 1125.28,-109.28 1148.56,-104.29"/>
<polygon fill="#666666" stroke="#666666" stroke-width="3" points="1149.19,-107.74 1158.66,-103 1148.3,-100.8 1149.19,-107.74"/>
<text text-anchor="middle" x="1119.16" y="-124.8" font-family="Times,serif" font-size="14.00" fill="#666666">&lt;16&gt;</text>
</g>
<!-- n1 -->
<g id="node24" class="node">
<title>n1</title>
<polygon fill="none" stroke="black" points="1839.17,-143 1793.26,-125 1839.17,-107 1885.09,-125 1839.17,-143"/>
<text text-anchor="middle" x="1839.17" y="-121.3" font-family="Times,serif" font-size="14.00">$1_Y</text>
</g>
<!-- x1&#45;&gt;n1 -->
<g id="edge6" class="edge">
<title>x1:e&#45;&gt;n1:w</title>
<path fill="none" stroke="#666666" stroke-width="3" d="M1069.83,-151C1378.5,-151 1461.54,-196.73 1764.18,-136 1772.99,-134.23 1776.56,-129.87 1782.01,-127.21"/>
<polygon fill="#666666" stroke="#666666" stroke-width="3" points="1783.14,-130.54 1792.17,-125 1781.66,-123.7 1783.14,-130.54"/>
<text text-anchor="middle" x="1344.68" y="-167.8" font-family="Times,serif" font-size="14.00" fill="#666666">&lt;16&gt;</text>
</g>
<!-- c19&#45;&gt;n3 -->
<g id="edge13" class="edge">
<title>c19:e&#45;&gt;n3:w</title>
<path fill="none" stroke="#d95f02" stroke-width="3" d="M2200.16,-238C2208.35,-238 2210.07,-235.29 2218.16,-234 2291.55,-222.31 2312.72,-217.44 2382.27,-217.03"/>
<polygon fill="#d95f02" stroke="#d95f02" stroke-width="3" points="2382.43,-220.53 2392.42,-217 2382.41,-213.53 2382.43,-220.53"/>
<text text-anchor="middle" x="2296.29" y="-237.8" font-family="Times,serif" font-size="14.00" fill="#d95f02">&lt;16&gt;</text>
</g>
<!-- c21 -->
<g id="node15" class="node">
<title>c21</title>
<polygon fill="none" stroke="black" points="1400.18,-203 1400.18,-249 1653.18,-249 1653.18,-203 1400.18,-203"/>
<text text-anchor="middle" x="1433.68" y="-222.3" font-family="Times,serif" font-size="14.00">opcode</text>
<polyline fill="none" stroke="black" points="1467.18,-203 1467.18,-249 "/>
<text text-anchor="middle" x="1517.68" y="-229.8" font-family="Times,serif" font-size="14.00">cu_inst</text>
<text text-anchor="middle" x="1517.68" y="-214.8" font-family="Times,serif" font-size="14.00">ControlUnit</text>
<polyline fill="none" stroke="black" points="1568.18,-203 1568.18,-249 "/>
<text text-anchor="middle" x="1610.68" y="-233.8" font-family="Times,serif" font-size="14.00">alu_op</text>
<polyline fill="none" stroke="black" points="1568.18,-226 1653.18,-226 "/>
<text text-anchor="middle" x="1610.68" y="-210.8" font-family="Times,serif" font-size="14.00">reg_write</text>
</g>
<!-- c21&#45;&gt;n2 -->
<g id="edge11" class="edge">
<title>c21:e&#45;&gt;n2:w</title>
<path fill="none" stroke="#666666" stroke-width="3" d="M1653.18,-238C1706.93,-238 1722.89,-238 1771.92,-238"/>
<polygon fill="#666666" stroke="#666666" stroke-width="3" points="1772.18,-241.5 1782.18,-238 1772.18,-234.5 1772.18,-241.5"/>
<text text-anchor="middle" x="1717.68" y="-241.8" font-family="Times,serif" font-size="14.00" fill="#666666">&lt;2&gt;</text>
</g>
<!-- c21&#45;&gt;n10 -->
<g id="edge8" class="edge">
<title>c21:e&#45;&gt;n10:w</title>
<path fill="none" stroke="#7570b3" d="M1653.18,-214C1903.2,-214 1963.05,-138.12 2207.87,-136.04"/>
<polygon fill="#7570b3" stroke="#7570b3" points="2208.17,-139.54 2218.16,-136 2208.14,-132.54 2208.17,-139.54"/>
</g>
<!-- x2&#45;&gt;c21 -->
<g id="edge2" class="edge">
<title>x2:e&#45;&gt;c21:w</title>
<path fill="none" stroke="#e7298a" stroke-width="3" d="M1284,-239.78C1327.72,-238.14 1344.4,-227.86 1388.12,-226.22"/>
<polygon fill="none" stroke="#e7298a" stroke-width="3" points="1283.92,-239.78 1278,-243.89 1271.92,-240 1277.85,-235.89 1283.92,-239.78"/>
<polygon fill="none" stroke="#e7298a" stroke-width="3" points="1388.19,-226.22 1394.11,-222.11 1400.18,-226 1394.26,-230.11 1388.19,-226.22"/>
<text text-anchor="middle" x="1344.68" y="-240.8" font-family="Times,serif" font-size="14.00" fill="#e7298a">&lt;4&gt;</text>
</g>
<!-- c23&#45;&gt;n5 -->
<g id="edge17" class="edge">
<title>c23:e&#45;&gt;n5:w</title>
<path fill="none" stroke="#1b9e77" stroke-width="3" d="M867,-267C901.49,-267 906.94,-294.68 935.76,-300.09"/>
<polygon fill="#1b9e77" stroke="#1b9e77" stroke-width="3" points="935.73,-303.6 946,-301 936.35,-296.63 935.73,-303.6"/>
<text text-anchor="middle" x="906.5" y="-300.8" font-family="Times,serif" font-size="14.00" fill="#1b9e77">&lt;16&gt;</text>
</g>
<!-- c24&#45;&gt;n6 -->
<g id="edge22" class="edge">
<title>c24:e&#45;&gt;n6:w</title>
<path fill="none" stroke="#e6ab02" stroke-width="3" d="M332,-208C363.41,-208 373.74,-208 400.71,-208"/>
<polygon fill="#e6ab02" stroke="#e6ab02" stroke-width="3" points="401,-211.5 411,-208 401,-204.5 401,-211.5"/>
<text text-anchor="middle" x="371.5" y="-211.8" font-family="Times,serif" font-size="14.00" fill="#e6ab02">&lt;16&gt;</text>
</g>
<!-- c29&#45;&gt;n8 -->
<g id="edge28" class="edge">
<title>c29:e&#45;&gt;n8:w</title>
<path fill="none" stroke="#66a61e" stroke-width="3" d="M2885.82,-394C2896.3,-394 2936.5,-337.76 2956.27,-320.18"/>
<polygon fill="#66a61e" stroke="#66a61e" stroke-width="3" points="2958.08,-323.17 2964.82,-315 2954.46,-317.19 2958.08,-323.17"/>
<text text-anchor="middle" x="2925.32" y="-381.8" font-family="Times,serif" font-size="14.00" fill="#66a61e">&lt;16&gt;</text>
</g>
<!-- c29&#45;&gt;n9 -->
<g id="edge30" class="edge">
<title>c29:e&#45;&gt;n9:w</title>
<path fill="none" stroke="#7570b3" stroke-width="3" d="M2885.82,-324C2896.43,-324 2936.43,-266.33 2956.22,-248.31"/>
<polygon fill="#7570b3" stroke="#7570b3" stroke-width="3" points="2958.16,-251.23 2964.82,-243 2954.48,-245.28 2958.16,-251.23"/>
<text text-anchor="middle" x="2925.32" y="-311.8" font-family="Times,serif" font-size="14.00" fill="#7570b3">&lt;16&gt;</text>
</g>
<!-- x3&#45;&gt;c29 -->
<g id="edge3" class="edge">
<title>x3:e&#45;&gt;c29:w</title>
<path fill="none" stroke="#e6ab02" stroke-width="3" d="M1394.55,-390C1533.05,-390 1572.23,-390 1716.68,-390 1716.68,-390 1716.68,-390 2454.62,-390 2512.28,-390 2529.61,-393.47 2581.75,-393.95"/>
<polygon fill="none" stroke="#e6ab02" stroke-width="3" points="1394.18,-390 1388.18,-394 1382.18,-390 1388.18,-386 1394.18,-390"/>
<polygon fill="none" stroke="#e6ab02" stroke-width="3" points="2581.82,-393.95 2587.84,-389.97 2593.82,-394 2587.81,-397.97 2581.82,-393.95"/>
<text text-anchor="middle" x="1951.66" y="-393.8" font-family="Times,serif" font-size="14.00" fill="#e6ab02">&lt;2&gt;</text>
</g>
<!-- x4&#45;&gt;c29 -->
<g id="edge4" class="edge">
<title>x4:e&#45;&gt;c29:w</title>
<path fill="none" stroke="#66a61e" stroke-width="3" d="M1776.35,-347C1849.33,-347 1871.99,-347 1950.66,-347 1950.66,-347 1950.66,-347 2454.62,-347 2512.26,-347 2529.62,-347 2581.76,-347"/>
<polygon fill="none" stroke="#66a61e" stroke-width="3" points="1776.18,-347 1770.18,-351 1764.18,-347 1770.18,-343 1776.18,-347"/>
<polygon fill="none" stroke="#66a61e" stroke-width="3" points="2581.82,-347 2587.82,-343 2593.82,-347 2587.82,-351 2581.82,-347"/>
<text text-anchor="middle" x="2103.66" y="-350.8" font-family="Times,serif" font-size="14.00" fill="#66a61e">&lt;2&gt;</text>
</g>
<!-- x5&#45;&gt;c29 -->
<g id="edge5" class="edge">
<title>x5:e&#45;&gt;c29:w</title>
<path fill="none" stroke="#d95f02" stroke-width="3" d="M2001.23,-301.02C2256.12,-301.68 2326.76,-323.31 2581.55,-323.98"/>
<polygon fill="none" stroke="#d95f02" stroke-width="3" points="2001.16,-301.02 1995.15,-305.01 1989.16,-301 1995.16,-297.01 2001.16,-301.02"/>
<polygon fill="none" stroke="#d95f02" stroke-width="3" points="2581.82,-323.98 2587.83,-319.99 2593.82,-324 2587.82,-327.99 2581.82,-323.98"/>
<text text-anchor="middle" x="2296.29" y="-320.8" font-family="Times,serif" font-size="14.00" fill="#d95f02">&lt;2&gt;</text>
</g>
<!-- x6&#45;&gt;n1 -->
<g id="edge7" class="edge">
<title>x6:e&#45;&gt;n1:w</title>
<path fill="none" stroke="#666666" stroke-width="3" d="M1574.68,-103C1659.29,-103 1680.17,-111.01 1764.18,-121 1772.37,-121.97 1776.46,-123.39 1781.85,-124.25"/>
<polygon fill="#666666" stroke="#666666" stroke-width="3" points="1781.94,-127.77 1792.17,-125 1782.45,-120.79 1781.94,-127.77"/>
<text text-anchor="middle" x="1717.68" y="-124.8" font-family="Times,serif" font-size="14.00" fill="#666666">&lt;16&gt;</text>
</g>
</g>
</svg>
